<mxfile host="app.diagrams.net" modified="2021-09-26T09:39:08.624Z" agent="5.0 (Macintosh; Intel Mac OS X 10_15_7) AppleWebKit/537.36 (KHTML, like Gecko) Chrome/86.0.4240.193 Safari/537.36" etag="KtETka7H1PyuGJyHxYkN" version="15.3.3" type="github">
  <diagram id="jIpp82CZUX5vi6DGRoLu" name="Page-1">
    <mxGraphModel dx="1773" dy="536" grid="1" gridSize="10" guides="1" tooltips="1" connect="1" arrows="1" fold="1" page="1" pageScale="1" pageWidth="827" pageHeight="1169" math="0" shadow="0">
      <root>
        <mxCell id="0" />
        <mxCell id="1" parent="0" />
        <mxCell id="WWjHJohw3SGoiaCBU_BD-11" style="edgeStyle=none;curved=1;rounded=0;orthogonalLoop=1;jettySize=auto;html=1;exitX=0.5;exitY=0;exitDx=0;exitDy=0;entryX=0.5;entryY=1;entryDx=0;entryDy=0;endArrow=block;endFill=0;startSize=14;endSize=14;sourcePerimeterSpacing=8;targetPerimeterSpacing=8;" edge="1" parent="1" source="WWjHJohw3SGoiaCBU_BD-1" target="WWjHJohw3SGoiaCBU_BD-2">
          <mxGeometry relative="1" as="geometry" />
        </mxCell>
        <mxCell id="WWjHJohw3SGoiaCBU_BD-1" value="&lt;pre&gt;ObjenesisCglibAopProxy&lt;/pre&gt;" style="rounded=0;whiteSpace=wrap;html=1;hachureGap=4;pointerEvents=0;fillColor=#dae8fc;strokeColor=#6c8ebf;" vertex="1" parent="1">
          <mxGeometry x="90" y="240" width="210" height="60" as="geometry" />
        </mxCell>
        <mxCell id="WWjHJohw3SGoiaCBU_BD-10" style="edgeStyle=none;curved=1;rounded=0;orthogonalLoop=1;jettySize=auto;html=1;exitX=0.5;exitY=0;exitDx=0;exitDy=0;entryX=0.5;entryY=1;entryDx=0;entryDy=0;dashed=1;endArrow=block;endFill=0;startSize=14;endSize=14;sourcePerimeterSpacing=8;targetPerimeterSpacing=8;" edge="1" parent="1" source="WWjHJohw3SGoiaCBU_BD-2" target="WWjHJohw3SGoiaCBU_BD-4">
          <mxGeometry relative="1" as="geometry" />
        </mxCell>
        <mxCell id="WWjHJohw3SGoiaCBU_BD-2" value="&lt;pre&gt;CglibAopProxy&lt;/pre&gt;" style="rounded=0;whiteSpace=wrap;html=1;hachureGap=4;pointerEvents=0;fillColor=#dae8fc;strokeColor=#6c8ebf;" vertex="1" parent="1">
          <mxGeometry x="170" y="120" width="120" height="60" as="geometry" />
        </mxCell>
        <mxCell id="WWjHJohw3SGoiaCBU_BD-9" style="edgeStyle=none;curved=1;rounded=0;orthogonalLoop=1;jettySize=auto;html=1;exitX=0.5;exitY=0;exitDx=0;exitDy=0;entryX=0.5;entryY=1;entryDx=0;entryDy=0;dashed=1;endArrow=block;endFill=0;startSize=14;endSize=14;sourcePerimeterSpacing=8;targetPerimeterSpacing=8;" edge="1" parent="1" source="WWjHJohw3SGoiaCBU_BD-3" target="WWjHJohw3SGoiaCBU_BD-4">
          <mxGeometry relative="1" as="geometry" />
        </mxCell>
        <mxCell id="WWjHJohw3SGoiaCBU_BD-3" value="&lt;pre&gt;&lt;pre&gt;JdkDynamicAopProxy&lt;/pre&gt;&lt;/pre&gt;" style="rounded=0;whiteSpace=wrap;html=1;hachureGap=4;pointerEvents=0;fillColor=#dae8fc;strokeColor=#6c8ebf;" vertex="1" parent="1">
          <mxGeometry x="329" y="120" width="170" height="60" as="geometry" />
        </mxCell>
        <mxCell id="WWjHJohw3SGoiaCBU_BD-4" value="&lt;pre&gt;&lt;pre&gt;AopProxy&lt;/pre&gt;&lt;/pre&gt;" style="rounded=0;whiteSpace=wrap;html=1;hachureGap=4;pointerEvents=0;fillColor=#dae8fc;strokeColor=#6c8ebf;" vertex="1" parent="1">
          <mxGeometry x="250" y="10" width="120" height="60" as="geometry" />
        </mxCell>
        <mxCell id="WWjHJohw3SGoiaCBU_BD-12" style="edgeStyle=none;curved=1;rounded=0;orthogonalLoop=1;jettySize=auto;html=1;exitX=1;exitY=0.5;exitDx=0;exitDy=0;entryX=0;entryY=0.5;entryDx=0;entryDy=0;endArrow=open;endFill=0;startSize=14;endSize=14;sourcePerimeterSpacing=8;targetPerimeterSpacing=8;dashed=1;" edge="1" parent="1" source="WWjHJohw3SGoiaCBU_BD-6" target="WWjHJohw3SGoiaCBU_BD-4">
          <mxGeometry relative="1" as="geometry" />
        </mxCell>
        <mxCell id="WWjHJohw3SGoiaCBU_BD-6" value="&lt;pre&gt;AopProxyFactory&lt;/pre&gt;" style="rounded=0;whiteSpace=wrap;html=1;hachureGap=4;pointerEvents=0;fillColor=#dae8fc;strokeColor=#6c8ebf;" vertex="1" parent="1">
          <mxGeometry x="-110" y="10" width="140" height="60" as="geometry" />
        </mxCell>
        <mxCell id="WWjHJohw3SGoiaCBU_BD-8" style="edgeStyle=none;curved=1;rounded=0;orthogonalLoop=1;jettySize=auto;html=1;exitX=0.5;exitY=0;exitDx=0;exitDy=0;entryX=0.5;entryY=1;entryDx=0;entryDy=0;endArrow=block;startSize=14;endSize=14;sourcePerimeterSpacing=8;targetPerimeterSpacing=8;dashed=1;endFill=0;" edge="1" parent="1" source="WWjHJohw3SGoiaCBU_BD-7" target="WWjHJohw3SGoiaCBU_BD-6">
          <mxGeometry relative="1" as="geometry" />
        </mxCell>
        <mxCell id="WWjHJohw3SGoiaCBU_BD-7" value="&lt;pre&gt;&lt;pre&gt;&lt;pre&gt;DefaultAopProxyFactory&lt;/pre&gt;&lt;/pre&gt;&lt;/pre&gt;" style="rounded=0;whiteSpace=wrap;html=1;hachureGap=4;pointerEvents=0;fillColor=#dae8fc;strokeColor=#6c8ebf;" vertex="1" parent="1">
          <mxGeometry x="-135" y="120" width="190" height="60" as="geometry" />
        </mxCell>
        <mxCell id="WWjHJohw3SGoiaCBU_BD-13" value="create" style="text;html=1;align=center;verticalAlign=middle;resizable=0;points=[];autosize=1;strokeColor=none;fillColor=none;" vertex="1" parent="1">
          <mxGeometry x="95" y="10" width="50" height="20" as="geometry" />
        </mxCell>
      </root>
    </mxGraphModel>
  </diagram>
</mxfile>
